<!-- Generated by IcoMoon.io -->
<svg version="1.1" xmlns="http://www.w3.org/2000/svg" width="35" height="32" viewBox="0 0 35 32">
<path fill="#fff" d="M2.8 16c0-0.001 0-0.001 0-0.002 0-7.29 5.91-13.2 13.2-13.2 2.43 0 4.707 0.657 6.662 1.802l-0.062-0.034c0.17 0.099 0.375 0.157 0.593 0.157 0.663 0 1.2-0.537 1.2-1.2 0-0.439-0.236-0.823-0.588-1.032l-0.006-0.003c-2.238-1.314-4.928-2.090-7.8-2.090-8.616 0-15.6 6.984-15.6 15.6s6.984 15.6 15.6 15.6c8.615 0 15.599-6.983 15.6-15.598v-0c0-0.663-0.537-1.2-1.2-1.2s-1.2 0.537-1.2 1.2v0c0 7.29-5.91 13.2-13.2 13.2s-13.2-5.91-13.2-13.2v0z"></path>
<path fill="#fff" d="M33.65 4.85c0.216-0.217 0.35-0.517 0.35-0.848 0-0.663-0.536-1.201-1.199-1.203h-0c-0.332 0-0.632 0.135-0.85 0.352l-15.95 15.952-6.35-6.35c-0.217-0.217-0.518-0.352-0.85-0.352-0.664 0-1.202 0.538-1.202 1.202 0 0.332 0.134 0.632 0.352 0.85v0l7.2 7.2c0.217 0.218 0.518 0.353 0.85 0.353s0.632-0.135 0.85-0.353l16.8-16.8z"></path>
</svg>
