<!-- Generated by IcoMoon.io -->
<svg version="1.1" xmlns="http://www.w3.org/2000/svg" width="1024" height="1024" viewBox="0 0 1024 1024">
<g id="icomoon-ignore">
</g>
<path fill="#fafafb" d="M290.56 9.344c5.788-5.774 13.776-9.344 22.599-9.344 0.005 0 0.010 0 0.015 0h397.653c0.004 0 0.009 0 0.015 0 8.822 0 16.811 3.57 22.599 9.345l281.215 281.215c5.774 5.788 9.344 13.776 9.344 22.599 0 0.005 0 0.010 0 0.015v-0.001 397.653c0 0.004 0 0.009 0 0.015 0 8.822-3.57 16.811-9.345 22.599l-281.215 281.215c-5.788 5.774-13.776 9.344-22.599 9.344-0.005 0-0.010 0-0.015 0h-397.653c-0.004 0-0.009 0-0.015 0-8.822 0-16.811-3.57-22.599-9.345l-281.215-281.215c-5.774-5.788-9.344-13.776-9.344-22.599 0-0.005 0-0.010 0-0.015v0.001-397.653c0-0.004 0-0.009 0-0.015 0-8.822 3.57-16.811 9.345-22.599l281.215-281.215zM326.4 64l-262.4 262.4v371.2l262.4 262.4h371.2l262.4-262.4v-371.2l-262.4-262.4h-371.2z"></path>
<path fill="#fafafb" d="M297.344 297.344c5.794-5.808 13.805-9.401 22.656-9.401s16.862 3.593 22.655 9.401l169.345 169.388 169.344-169.387c5.798-5.798 13.808-9.384 22.656-9.384 17.695 0 32.040 14.345 32.040 32.040 0 8.848-3.586 16.858-9.384 22.656l-169.387 169.344 169.387 169.344c5.106 5.659 8.229 13.193 8.229 21.456 0 17.72-14.365 32.085-32.085 32.085-8.263 0-15.797-3.124-21.484-8.255l0.028 0.025-169.344-169.387-169.344 169.387c-5.799 5.762-13.79 9.324-22.614 9.324-17.683 0-32.025-14.305-32.085-31.974v-0.006c0.001-8.848 3.588-16.858 9.387-22.656l169.387-169.344-169.344-169.344c-5.808-5.794-9.401-13.805-9.401-22.656s3.593-16.862 9.401-22.655l0.001-0.001z"></path>
</svg>
